<?xml version="1.0" encoding="UTF-8"?>
<svg width="70px" height="46px" viewBox="0 0 70 46" version="1.1" xmlns="http://www.w3.org/2000/svg" xmlns:xlink="http://www.w3.org/1999/xlink">
    <!-- Generator: Sketch 49.3 (51167) - http://www.bohemiancoding.com/sketch -->
    <title>noun_196452_cc</title>
    <desc>Created with Sketch.</desc>
    <defs></defs>
    <g id="Maquette" stroke="none" stroke-width="1" fill="none" fill-rule="evenodd">
        <g id="Home-générale" transform="translate(-117.000000, -4303.000000)" fill="#FE5F55" fill-rule="nonzero">
            <g id="Home-/-partie-3" transform="translate(117.000000, 3797.000000)">
                <g id="Optimiser-votre-budget" transform="translate(0.000000, 506.000000)">
                    <g id="noun_196452_cc">
                        <path d="M59.5329376,8.44405594 L58.2446837,8.44405594 L58.2446837,20.1853147 L70,20.1853147 L70,18.8986014 C70,16.3251748 69.0338096,13.9125874 67.4234923,11.9825175 C65.3300798,9.73076923 62.5120246,8.44405594 59.5329376,8.44405594 Z M60.8211914,17.6118881 L60.8211914,11.1783217 C62.5925404,11.5 64.2028577,12.3846154 65.4105957,13.7517483 C66.3767861,14.8776224 67.020913,16.1643357 67.2624606,17.6118881 L60.8211914,17.6118881 Z M55.668176,10.9370629 L54.3799222,10.9370629 C47.2140102,10.9370629 41.4168679,16.7272727 41.4168679,23.8846154 C41.4168679,31.041958 47.2140102,36.8321678 54.3799222,36.8321678 C61.5458342,36.8321678 67.3429765,31.041958 67.3429765,23.8846154 L67.3429765,22.5979021 L55.668176,22.5979021 L55.668176,10.9370629 Z M64.605437,25.1713287 C63.9613101,30.2377622 59.6134534,34.1783217 54.3799222,34.1783217 C48.6632958,34.1783217 44.0738915,29.513986 44.0738915,23.8846154 C44.0738915,18.6573427 48.0191689,14.3146853 53.0916684,13.6713287 L53.0916684,25.2517483 L64.605437,25.2517483 L64.605437,25.1713287 Z M53.0916684,6.59440559 L53.0916684,2.65384615 L8.56639503,2.65384615 L8.56639503,31.5244755 L39.8870665,31.5244755 C40.6117093,31.5244755 41.1753203,32.0874126 41.1753203,32.8111888 C41.1753203,33.534965 40.6117093,34.0979021 39.8870665,34.0979021 L8.08329984,34.0979021 L3.41337967,43.4265734 L24.669568,43.4265734 L25.6357584,41.4965035 C25.877306,41.013986 26.2798853,40.7727273 26.8434964,40.7727273 L34.8950829,40.7727273 C35.3781781,40.7727273 35.8612733,41.0944056 36.1028208,41.4965035 L37.0690112,43.4265734 L58.2446837,43.4265734 L56.7148823,40.3706294 C56.3928188,39.7272727 56.6343664,38.9230769 57.2784933,38.6013986 C57.9226203,38.2797203 58.7277789,38.520979 59.0498424,39.1643357 L61.4653183,44.0699301 C61.62635,44.472028 61.62635,44.9545455 61.3848024,45.3566434 C61.1432549,45.7587413 60.7406755,46 60.2575803,46 L1.31996718,46 C0.83687199,46 0.434292665,45.7587413 0.19274507,45.3566434 C-0.0488025246,44.9545455 -0.0488025246,44.472028 0.112229205,44.0699301 L5.90937148,32.4090909 L5.90937148,1.28671329 C5.90937148,0.562937063 6.47298254,0 7.19762532,0 L54.3799222,0 C55.104565,0 55.668176,0.562937063 55.668176,1.28671329 L55.668176,6.59440559 C55.668176,7.31818182 55.104565,7.88111888 54.3799222,7.88111888 C53.6552794,7.88111888 53.0916684,7.31818182 53.0916684,6.59440559 Z M29.5005199,26.2972028 L29.5005199,24.6083916 L25.7967901,24.6083916 L25.7967901,22.034965 L32.2380593,22.034965 C33.2847656,22.034965 34.0899242,21.2307692 34.0899242,20.1853147 C34.0899242,19.1398601 33.2847656,18.3356643 32.2380593,18.3356643 L29.3394882,18.3356643 C26.9240122,18.3356643 24.9111156,16.3251748 24.9111156,13.9125874 C24.9111156,11.5 26.9240122,9.48951049 29.3394882,9.48951049 L29.5005199,9.48951049 L29.5005199,7.8006993 L32.0770276,7.8006993 L32.0770276,9.48951049 L35.7002415,9.48951049 L35.7002415,12.0629371 L29.3394882,12.0629371 C28.2927819,12.0629371 27.4876233,12.8671329 27.4876233,13.9125874 C27.4876233,14.958042 28.2927819,15.7622378 29.3394882,15.7622378 L32.2380593,15.7622378 C34.6535353,15.7622378 36.6664319,17.7727273 36.6664319,20.1853147 C36.6664319,22.5979021 34.6535353,24.6083916 32.2380593,24.6083916 L32.0770276,24.6083916 L32.0770276,26.2972028 L29.5005199,26.2972028 Z" id="Shape"></path>
                    </g>
                </g>
            </g>
        </g>
    </g>
</svg>