<?xml version="1.0" encoding="UTF-8"?>
<svg width="83px" height="83px" viewBox="0 0 83 83" version="1.1" xmlns="http://www.w3.org/2000/svg" xmlns:xlink="http://www.w3.org/1999/xlink">
    <!-- Generator: Sketch 49.3 (51167) - http://www.bohemiancoding.com/sketch -->
    <title>Logo blanc png</title>
    <desc>Created with Sketch.</desc>
    <defs></defs>
    <g id="Logo-blanc-png" stroke="none" stroke-width="1" fill="none" fill-rule="evenodd">
        <path d="M42,71 C25.4314575,71 12,57.5685425 12,41 C12,24.4314575 25.4314575,11 42,11 C58.5685425,11 72,24.4314575 72,41 C72,57.5685425 58.5685425,71 42,71 Z M42,68 C56.9116882,68 69,55.9116882 69,41 C69,26.0883118 56.9116882,14 42,14 C27.0883118,14 15,26.0883118 15,41 C15,55.9116882 27.0883118,68 42,68 Z" id="Oval-2" fill="#FFFFFF" fill-rule="nonzero"></path>
        <path d="M42,67 C27.6405965,67 16,55.3594035 16,41 C16,26.6405965 27.6405965,15 42,15 C56.3594035,15 68,26.6405965 68,41 C68,55.3594035 56.3594035,67 42,67 Z M42,64.2774869 C54.855801,64.2774869 65.2774869,53.855801 65.2774869,41 C65.2774869,28.144199 54.855801,17.7225131 42,17.7225131 C29.144199,17.7225131 18.7225131,28.144199 18.7225131,41 C18.7225131,53.855801 29.144199,64.2774869 42,64.2774869 Z" id="Oval-2" fill="#FE5F55" fill-rule="nonzero"></path>
        <path d="M28.1443574,51.6333526 C27.7376076,51.6333526 27.3381271,51.5437721 26.945904,51.3646085 C26.553681,51.1854449 26.2123067,50.9893363 25.9217711,50.7762768 C25.5150213,50.4663722 25.2729119,50.3114222 25.1954357,50.3114222 C25.0017453,50.3114222 24.8758485,50.5196362 24.8177413,50.9360706 L24.7596345,51.5171389 L24.4255202,51.5171389 L24.3238333,46.9266993 L24.6724743,46.9266993 C24.7305814,47.6433538 24.9315322,48.3285233 25.2753326,48.9822284 C25.6191331,49.6359335 26.0476667,50.163732 26.5609463,50.5656396 C27.0742258,50.9675472 27.6020243,51.1684979 28.1443574,51.1684979 C28.9384881,51.1684979 29.5171295,50.9748104 29.880299,50.5874296 C30.2434685,50.2000488 30.4250505,49.7351988 30.4250505,49.1928657 C30.4250505,48.7183242 30.2870482,48.3454758 30.0110393,48.0743092 C29.7350305,47.8031426 29.3307079,47.5610333 28.7980592,47.3479738 L26.5899997,46.4618446 C25.8249226,46.15194 25.2608077,45.7524595 24.8976382,45.2633913 C24.5344687,44.774323 24.3528867,44.1859972 24.3528867,43.4983963 C24.3528867,42.5686823 24.6240492,41.8810917 25.1663823,41.4356038 C25.7087155,40.9901159 26.3866217,40.7673752 27.2001214,40.7673752 C27.8392997,40.7673752 28.5462591,41.0579065 29.3210207,41.6389777 C29.4178659,41.7067693 29.5147097,41.7672967 29.6115549,41.8205615 C29.7084001,41.8738264 29.7955595,41.9004584 29.8730356,41.9004584 C30.0376725,41.9004584 30.1345162,41.7842459 30.1635698,41.5518174 L30.2216766,41.028856 L30.5703176,41.028856 L30.7155847,44.8058 L30.3669437,44.8058 C30.2119914,44.1085145 29.9674609,43.4887145 29.6333449,42.9463814 C29.299229,42.4040483 28.9094329,41.9827779 28.463945,41.6825578 C28.018457,41.3823377 27.5584492,41.2322299 27.0839077,41.2322299 C26.5415746,41.2322299 26.0960934,41.4089697 25.7474506,41.7624547 C25.3988079,42.1159397 25.2244892,42.6074217 25.2244892,43.2369155 C25.2244892,43.672719 25.3358595,44.0116721 25.5586034,44.2537851 C25.7813474,44.4958981 26.1106161,44.7041121 26.5464196,44.8784335 L29.3500741,45.99699 C29.998937,46.258472 30.4855768,46.6313205 30.8100083,47.1155465 C31.1344397,47.5997725 31.296653,48.1082022 31.296653,48.6408508 C31.296653,49.1541304 31.1828616,49.6383491 30.9552753,50.0935216 C30.7276891,50.548694 30.3790516,50.9191214 29.9093524,51.2048147 C29.4396532,51.4905081 28.8513274,51.6333526 28.1443574,51.6333526 Z M35.7418255,51.5461923 C34.8411651,51.5461923 34.1172581,51.2411345 33.5700827,50.6310098 C33.0229073,50.020885 32.7493237,49.1735022 32.7493237,48.0888359 C32.7493237,47.4690266 32.8703784,46.8903852 33.1124914,46.3528943 C33.3546044,45.8154035 33.6911365,45.3844488 34.1220976,45.0600174 C34.5530588,44.7355859 35.0348564,44.5733726 35.567505,44.5733726 C36.1582608,44.5733726 36.6424795,44.7331648 37.0201758,45.052754 C37.3978721,45.3723432 37.6714557,45.7766658 37.8409348,46.2657341 C38.0104139,46.7548024 38.0951522,47.2559688 38.0951522,47.7692483 C38.0951522,47.8757781 38.0612569,47.9459898 37.9934652,47.9798856 C37.9256736,48.0137814 37.8094611,48.0307291 37.6448242,48.0307291 L34.027674,48.0307291 C34.027674,48.9991811 34.1656764,49.7690889 34.4416852,50.3404756 C34.717694,50.9118623 35.1704385,51.1975514 35.7999324,51.1975514 C36.2454203,51.1975514 36.6642695,51.0280748 37.0564926,50.6891166 C37.4487156,50.3501584 37.6980883,49.8223599 37.804618,49.1057054 L38.153259,49.1057054 C38.0951519,49.8126754 37.8506214,50.396159 37.4196603,50.8561737 C36.9886991,51.3161884 36.4294265,51.5461923 35.7418255,51.5461923 Z M36.8458553,47.6820881 C36.8458553,46.9073265 36.7441694,46.2536312 36.5407944,45.7209826 C36.3374195,45.1883339 36.0033086,44.9220136 35.5384516,44.9220136 C35.0445411,44.9220136 34.6692716,45.190755 34.4126318,45.7282459 C34.155992,46.2657368 34.027674,46.917011 34.027674,47.6820881 L36.8458553,47.6820881 Z M39.1410751,51.0232309 L39.8964639,51.0232309 C40.0126782,51.0232309 40.0949954,50.9990199 40.143418,50.9505973 C40.1918406,50.9021747 40.2160515,50.8198575 40.2160515,50.7036433 L40.2160515,41.6970845 C40.2160515,41.5808703 40.1918406,41.4985531 40.143418,41.4501305 C40.0949954,41.4017079 40.0126782,41.377497 39.8964639,41.377497 L39.1410751,41.377497 L39.1410751,41.028856 L41.2619744,41.028856 L41.2619744,50.7036433 C41.2619744,50.8198575 41.2861854,50.9021747 41.334608,50.9505973 C41.3830306,50.9990199 41.4653478,51.0232309 41.581562,51.0232309 L42.3369508,51.0232309 L42.3369508,51.3718718 L39.1410751,51.3718718 L39.1410751,51.0232309 Z M46.3463221,51.5461923 C45.4456618,51.5461923 44.7217547,51.2411345 44.1745793,50.6310098 C43.6274039,50.020885 43.3538204,49.1735022 43.3538204,48.0888359 C43.3538204,47.4690266 43.474875,46.8903852 43.716988,46.3528943 C43.9591011,45.8154035 44.2956331,45.3844488 44.7265942,45.0600174 C45.1575554,44.7355859 45.639353,44.5733726 46.1720016,44.5733726 C46.7627574,44.5733726 47.2469761,44.7331648 47.6246724,45.052754 C48.0023687,45.3723432 48.2759523,45.7766658 48.4454314,46.2657341 C48.6149105,46.7548024 48.6996488,47.2559688 48.6996488,47.7692483 C48.6996488,47.8757781 48.6657535,47.9459898 48.5979618,47.9798856 C48.5301702,48.0137814 48.4139577,48.0307291 48.2493208,48.0307291 L44.6321706,48.0307291 C44.6321706,48.9991811 44.770173,49.7690889 45.0461818,50.3404756 C45.3221906,50.9118623 45.7749352,51.1975514 46.404429,51.1975514 C46.8499169,51.1975514 47.2687661,51.0280748 47.6609892,50.6891166 C48.0532123,50.3501584 48.3025849,49.8223599 48.4091146,49.1057054 L48.7577556,49.1057054 C48.6996485,49.8126754 48.455118,50.396159 48.0241569,50.8561737 C47.5931957,51.3161884 47.0339231,51.5461923 46.3463221,51.5461923 Z M47.4503519,47.6820881 C47.4503519,46.9073265 47.348666,46.2536312 47.1452911,45.7209826 C46.9419161,45.1883339 46.6078052,44.9220136 46.1429482,44.9220136 C45.6490377,44.9220136 45.2737682,45.190755 45.0171284,45.7282459 C44.7604886,46.2657368 44.6321706,46.917011 44.6321706,47.6820881 L47.4503519,47.6820881 Z M52.8833406,51.5461923 C52.3216384,51.5461923 51.8253142,51.3912423 51.3943531,51.0813377 C50.9633919,50.771433 50.629281,50.3501627 50.3920102,49.8175141 C50.1547395,49.2848655 50.0361059,48.6989608 50.0361059,48.0597825 C50.0361059,47.4206042 50.1571606,46.8346995 50.3992736,46.3020509 C50.6413866,45.7694023 50.9779186,45.3481319 51.4088798,45.0382273 C51.8398409,44.7283226 52.3313229,44.5733726 52.8833406,44.5733726 C53.3288285,44.5733726 53.7162035,44.6677953 54.0454772,44.8566434 C54.3747509,45.0454916 54.6265446,45.287601 54.800866,45.5829788 C54.9751874,45.8783567 55.0623468,46.1761512 55.0623468,46.4763714 C55.0623468,46.7765915 54.9848718,47.0114376 54.8299194,47.1809167 C54.6749671,47.3503958 54.4861218,47.4351341 54.2633778,47.4351341 C54.0696874,47.4351341 53.9074741,47.3721856 53.7767331,47.2462869 C53.6459921,47.1203881 53.5806226,46.9702803 53.5806226,46.7959589 C53.5806226,46.6216376 53.6290444,46.4763719 53.7258896,46.3601577 C53.8227348,46.2439435 53.9389473,46.1664685 54.0745306,46.1277304 C54.229483,46.0793078 54.306958,45.9921484 54.306958,45.8662496 C54.306958,45.7500354 54.256115,45.6192963 54.1544275,45.4740285 C54.0527401,45.3287607 53.895369,45.2004428 53.6823095,45.0890708 C53.4692501,44.9776988 53.2029298,44.9220136 52.8833406,44.9220136 C52.2732158,44.9220136 51.8592088,45.1834918 51.6413071,45.7064558 C51.4234054,46.2294199 51.3144562,47.0138543 51.3144562,48.0597825 C51.3144562,49.1057107 51.4209843,49.890145 51.6340437,50.4131091 C51.8471032,50.9360732 52.2635313,51.1975514 52.8833406,51.1975514 C53.4740963,51.1975514 53.929262,50.9893373 54.2488511,50.5729029 C54.5684403,50.1564686 54.7621278,49.6674076 54.8299194,49.1057054 L55.1785604,49.1057054 C55.1495069,49.5027708 55.0478209,49.8877247 54.8734996,50.2605787 C54.6991782,50.6334327 54.4425423,50.9409116 54.103584,51.1830246 C53.7646258,51.4251377 53.3578821,51.5461923 52.8833406,51.5461923 Z M58.6649703,51.5461923 C58.2291668,51.5461923 57.8684239,51.3912423 57.5827305,51.0813377 C57.2970372,50.771433 57.1541927,50.3501627 57.1541927,49.8175141 L57.1541927,45.154441 L56.0792163,45.154441 L56.0792163,44.7476931 L56.3988039,44.7476931 C56.8346073,44.7476931 57.1759815,44.512847 57.4229367,44.0431478 C57.669892,43.5734486 57.7933678,43.0529134 57.7933678,42.4815267 L57.7933678,41.9585653 L58.2001156,41.9585653 L58.2001156,44.7476931 L60.0014274,44.7476931 L60.0014274,45.154441 L58.2001156,45.154441 L58.2001156,49.8901477 C58.2001156,50.1806833 58.2582219,50.4227926 58.3744361,50.616483 C58.4906503,50.8101735 58.68918,50.9070172 58.9700311,50.9070172 C59.6576321,50.9070172 60.0014274,50.3259547 60.0014274,49.1638123 L60.2629081,49.1638123 C60.2629081,49.8126751 60.1684854,50.3719478 59.9796373,50.841647 C59.7907892,51.3113462 59.3525712,51.5461923 58.6649703,51.5461923 Z" id="Select" fill="#FFFFFF"></path>
        <path d="M27.2956345,37.984058 L28.0016325,37.984058 C28.1781329,37.984058 28.2663817,37.8958092 28.2663817,37.7193088 L28.2663817,31.8948253 C28.2663817,31.8033066 28.2451367,31.7363029 28.2026458,31.693812 C28.160155,31.6513212 28.0931512,31.6300761 28.0016325,31.6300761 L27.2956345,31.6300761 L27.2956345,31.3162992 L32.767119,31.3162992 L32.8063411,33.7676811 L32.5612029,33.7676811 C32.5612029,33.6369401 32.5334208,33.4146837 32.4778559,33.1009053 C32.422291,32.7871268 32.312797,32.5060378 32.1493707,32.2576299 C31.8748146,31.8392586 31.4891343,31.6300761 30.9923184,31.6300761 L29.4332395,31.6300761 C29.3417208,31.6300761 29.2747171,31.6513212 29.2322262,31.693812 C29.1897354,31.7363029 29.1684903,31.8033066 29.1684903,31.8948253 L29.1684903,34.5325123 L29.9235159,34.5325123 C30.2569055,34.5325123 30.4971386,34.3543803 30.6442222,33.998111 C30.7913059,33.6418417 30.8648466,33.2676012 30.8648466,32.8753781 L31.1197903,32.8753781 L31.1197903,36.5034234 L30.8648466,36.5034234 C30.8648466,36.1112003 30.7913059,35.7369597 30.6442222,35.3806904 C30.4971386,35.0244212 30.2569055,34.8462892 29.9235159,34.8462892 L29.1684903,34.8462892 L29.1684903,37.6604756 C29.1684903,37.7585314 29.1897354,37.8369748 29.2322262,37.8958083 C29.2747171,37.9546418 29.3417208,37.984058 29.4332395,37.984058 L30.296126,37.984058 L30.296126,38.2978349 L27.2956345,38.2978349 L27.2956345,37.984058 Z M33.6888386,38.0625023 L34.1006707,38.0625023 C34.1791153,38.0625023 34.2346794,38.0461599 34.2673647,38.0134746 C34.3000499,37.9807894 34.3163923,37.9252253 34.3163923,37.8467807 L34.3163923,34.2775686 C34.3163923,34.199124 34.3000499,34.1435599 34.2673647,34.1108746 C34.2346794,34.0781893 34.1791153,34.061847 34.1006707,34.061847 L33.6888386,34.061847 L33.6888386,33.8265143 L35.0223903,33.8265143 L35.0223903,34.8070671 L35.0616124,34.8168726 C35.1988905,34.4769459 35.3770225,34.2072966 35.5960137,34.0079166 C35.8150049,33.8085365 36.048701,33.708848 36.2971089,33.708848 C36.5455169,33.708848 36.7481624,33.7807545 36.9050516,33.9245696 C37.0619409,34.0683847 37.1403843,34.2644933 37.1403843,34.5129012 C37.1403843,34.6567164 37.0897229,34.7972609 36.9883986,34.9345389 C36.8870743,35.071817 36.7579695,35.140455 36.6010803,35.140455 C36.4768763,35.140455 36.3722851,35.1077702 36.2873034,35.0423997 C36.2023217,34.9770292 36.1598315,34.8855119 36.1598315,34.767845 C36.1598315,34.6305669 36.2252011,34.5129017 36.3559421,34.414846 C36.4147756,34.3756237 36.4589,34.3396704 36.4883167,34.3069852 C36.5177334,34.2742999 36.5324416,34.2318097 36.5324416,34.1795133 C36.5324416,34.1206798 36.5046595,34.0732869 36.4490946,34.0373331 C36.3935297,34.0013794 36.3167205,33.9834027 36.2186647,33.9834027 C36.0160161,33.9834027 35.8215418,34.081457 35.6352358,34.2775686 C35.4489298,34.4736801 35.3002142,34.7286213 35.1890843,35.0423997 C35.0779544,35.3561782 35.0223903,35.6830258 35.0223903,36.0229525 L35.0223903,37.8467807 C35.0223903,37.9252253 35.0387327,37.9807894 35.071418,38.0134746 C35.1041032,38.0461599 35.1596673,38.0625023 35.2381119,38.0625023 L35.6499441,38.0625023 L35.6499441,38.2978349 L33.6888386,38.2978349 L33.6888386,38.0625023 Z M39.8270989,38.4155013 C39.2191531,38.4155013 38.7305159,38.2095872 38.3611725,37.797753 C37.9918291,37.3859188 37.8071602,36.8139354 37.8071602,36.0817857 C37.8071602,35.6634144 37.8888721,35.2728314 38.0522984,34.9100251 C38.2157247,34.5472188 38.4428838,34.2563244 38.7337826,34.0373331 C39.0246813,33.8183419 39.3498947,33.708848 39.7094326,33.708848 C40.1081927,33.708848 40.4350403,33.8167077 40.6899853,34.0324304 C40.9449303,34.2481531 41.1295993,34.5210709 41.2439976,34.8511919 C41.358396,35.181313 41.4155944,35.5196003 41.4155944,35.8660641 C41.4155944,35.9379716 41.392715,35.9853645 41.3469557,36.0082442 C41.3011963,36.0311239 41.2227529,36.0425636 41.111623,36.0425636 L38.6700466,36.0425636 C38.6700466,36.6962687 38.7631982,37.2159564 38.9495042,37.6016425 C39.1358101,37.9873285 39.4414127,38.1801686 39.866321,38.1801686 C40.1670254,38.1801686 40.4497486,38.0657719 40.7144992,37.8369751 C40.9792497,37.6081783 41.1475763,37.2519144 41.2194838,36.7681726 L41.4548165,36.7681726 C41.4155942,37.2453773 41.2505361,37.6392288 40.9596373,37.9497387 C40.6687386,38.2602486 40.2912295,38.4155013 39.8270989,38.4155013 Z M40.572319,35.8072309 C40.572319,35.2842668 40.503681,34.8430225 40.3664029,34.4834847 C40.2291248,34.1239468 40.0036,33.9441806 39.6898215,33.9441806 C39.3564319,33.9441806 39.103125,34.1255811 38.9298931,34.4883874 C38.7566613,34.8511938 38.6700466,35.2908039 38.6700466,35.8072309 L40.572319,35.8072309 Z M42.2196477,38.0625023 L42.6314798,38.0625023 C42.7099244,38.0625023 42.7654885,38.0461599 42.7981738,38.0134746 C42.830859,37.9807894 42.8472014,37.9252253 42.8472014,37.8467807 L42.8472014,34.2775686 C42.8472014,34.199124 42.830859,34.1435599 42.7981738,34.1108746 C42.7654885,34.0781893 42.7099244,34.061847 42.6314798,34.061847 L42.2196477,34.061847 L42.2196477,33.8265143 L43.5531994,33.8265143 L43.5531994,34.6305676 L43.5924215,34.6403731 C43.7427737,34.3265946 43.9290769,34.0928986 44.1513366,33.9392779 C44.3735963,33.7856572 44.6187321,33.708848 44.8867512,33.708848 C45.3639559,33.708848 45.7022432,33.8559294 45.9016233,34.1500967 C46.1010034,34.444264 46.2006919,34.7972595 46.2006919,35.2090937 L46.2006919,37.8467807 C46.2006919,37.9252253 46.2170343,37.9807894 46.2497195,38.0134746 C46.2824048,38.0461599 46.3379689,38.0625023 46.4164135,38.0625023 L46.8282457,38.0625023 L46.8282457,38.2978349 L44.8671401,38.2978349 L44.8671401,38.0625023 L45.2789723,38.0625023 C45.3574169,38.0625023 45.412981,38.0461599 45.4456663,38.0134746 C45.4783515,37.9807894 45.4946939,37.9252253 45.4946939,37.8467807 L45.4946939,35.0227887 C45.4946939,34.7351584 45.4374956,34.4900227 45.3230972,34.2873741 C45.2086988,34.0847255 45.0142244,33.9834027 44.7396683,33.9834027 C44.5108715,33.9834027 44.3065917,34.0634804 44.1268228,34.2236382 C43.9470539,34.3837959 43.8065094,34.6027839 43.7051851,34.8806085 C43.6038608,35.1584332 43.5531994,35.4673042 43.5531994,35.8072309 L43.5531994,37.8467807 C43.5531994,37.9252253 43.5695418,37.9807894 43.6022271,38.0134746 C43.6349123,38.0461599 43.6904764,38.0625023 43.768921,38.0625023 L44.1807532,38.0625023 L44.1807532,38.2978349 L42.2196477,38.2978349 L42.2196477,38.0625023 Z M49.5345713,38.4155013 C49.1554223,38.4155013 48.8204035,38.31091 48.5295047,38.1017244 C48.2386059,37.8925387 48.0130811,37.6081813 47.8529233,37.2486435 C47.6927656,36.8891057 47.6126879,36.49362 47.6126879,36.0621746 C47.6126879,35.6307292 47.6943998,35.2352436 47.8578261,34.8757058 C48.0212524,34.5161679 48.2484115,34.2318105 48.5393102,34.0226249 C48.830209,33.8134392 49.1619594,33.708848 49.5345713,33.708848 C49.8352757,33.708848 50.0967538,33.7725833 50.3190135,33.9000558 C50.5412733,34.0275283 50.711234,34.1909521 50.828901,34.3903321 C50.9465679,34.5897122 51.0054005,34.7907235 51.0054005,34.9933721 C51.0054005,35.1960207 50.9531048,35.3545418 50.848512,35.4689402 C50.7439192,35.5833386 50.6164486,35.6405369 50.4660964,35.6405369 C50.3353554,35.6405369 50.2258615,35.5980467 50.1376113,35.5130651 C50.0493611,35.4280834 50.0052366,35.3267606 50.0052366,35.2090937 C50.0052366,35.0914268 50.0379214,34.9933725 50.1032919,34.9149279 C50.1686624,34.8364833 50.2471059,34.7841876 50.3386246,34.7580394 C50.4432174,34.7253542 50.495513,34.6665216 50.495513,34.5815399 C50.495513,34.5030953 50.461194,34.4148465 50.392555,34.3167907 C50.3239159,34.2187349 50.2176905,34.1321203 50.0738753,34.0569442 C49.9300602,33.9817681 49.750294,33.9441806 49.5345713,33.9441806 C49.1227371,33.9441806 48.8432823,34.1206784 48.6961987,34.4736791 C48.549115,34.8266799 48.4755743,35.3561731 48.4755743,36.0621746 C48.4755743,36.7681761 48.5474808,37.2976693 48.6912959,37.6506701 C48.8351111,38.0036709 49.1162,38.1801686 49.5345713,38.1801686 C49.9333314,38.1801686 50.2405682,38.0396241 50.4562909,37.7585309 C50.6720136,37.4774377 50.8027527,37.1473216 50.848512,36.7681726 L51.0838447,36.7681726 C51.0642335,37.0361917 50.9955955,37.2960356 50.8779286,37.5477121 C50.7602617,37.7993885 50.5870324,38.0069368 50.3582356,38.1703631 C50.1294388,38.3337893 49.8548868,38.4155013 49.5345713,38.4155013 Z M51.6917874,38.0625023 L52.2408969,38.0625023 C52.3193416,38.0625023 52.3749057,38.0461599 52.4075909,38.0134746 C52.4402762,37.9807894 52.4566186,37.9252253 52.4566186,37.8467807 L52.4566186,31.7673535 C52.4566186,31.6889089 52.4402762,31.6333448 52.4075909,31.6006595 C52.3749057,31.5679743 52.3193416,31.5516319 52.2408969,31.5516319 L51.6917874,31.5516319 L51.6917874,31.3162992 L53.1626166,31.3162992 L53.1626166,34.6305676 L53.2018387,34.6403731 C53.3521908,34.3265946 53.538494,34.0928986 53.7607537,33.9392779 C53.9830135,33.7856572 54.2281492,33.708848 54.4961683,33.708848 C54.9733731,33.708848 55.3116604,33.8559294 55.5110404,34.1500967 C55.7104205,34.444264 55.810109,34.7972595 55.810109,35.2090937 L55.810109,37.8467807 C55.810109,37.9252253 55.8264514,37.9807894 55.8591367,38.0134746 C55.8918219,38.0461599 55.947386,38.0625023 56.0258306,38.0625023 L56.4376628,38.0625023 L56.4376628,38.2978349 L54.4765573,38.2978349 L54.4765573,38.0625023 L54.8883894,38.0625023 C54.966834,38.0625023 55.0223981,38.0461599 55.0550834,38.0134746 C55.0877687,37.9807894 55.104111,37.9252253 55.104111,37.8467807 L55.104111,35.0227887 C55.104111,34.7351584 55.0469127,34.4900227 54.9325143,34.2873741 C54.8181159,34.0847255 54.6236416,33.9834027 54.3490854,33.9834027 C54.1202886,33.9834027 53.9160088,34.0634804 53.7362399,34.2236382 C53.556471,34.3837959 53.4159265,34.6027839 53.3146022,34.8806085 C53.2132779,35.1584332 53.1626166,35.4673042 53.1626166,35.8072309 L53.1626166,37.8467807 C53.1626166,37.9252253 53.1789589,37.9807894 53.2116442,38.0134746 C53.2443294,38.0461599 53.2998935,38.0625023 53.3783382,38.0625023 L53.7901703,38.0625023 L53.7901703,38.2978349 L51.6917874,38.2978349 L51.6917874,38.0625023 Z" id="French" fill="#FFFFFF"></path>
    </g>
</svg>