<?xml version="1.0" encoding="iso-8859-1"?>
<!-- Generator: Adobe Illustrator 19.0.0, SVG Export Plug-In . SVG Version: 6.00 Build 0)  -->
<svg xmlns="http://www.w3.org/2000/svg" xmlns:xlink="http://www.w3.org/1999/xlink" version="1.1" id="Capa_1" x="0px" y="0px" viewBox="0 0 512.003 512.003" style="enable-background:new 0 0 512.003 512.003;" xml:space="preserve" width="512px" height="512px">
<g>
	<g>
		<path d="M255.997,66.002c-5.52,0-10,4.48-10,10c0,5.52,4.48,10,10,10c5.52,0,10-4.48,10-10    C265.997,70.482,261.517,66.002,255.997,66.002z" fill="#fe5f55"/>
	</g>
</g>
<g>
	<g>
		<path d="M410.767,111.647c-16.877-22.122-36.533-33.795-58.421-34.695c-20.823-0.857-39.193,8.414-51.844,17.295    c-2.004-39.181-17.621-72.906-30.32-86.57c-4.82-5.186-9.476-7.733-14.175-7.676c-4.749-0.011-9.356,2.491-14.177,7.678    c-12.626,13.586-28.134,47.011-30.276,85.903c-15.889-11.381-33.652-17.234-50.905-16.466c-22.637,1.018-43.198,13-59.459,34.65    c-2.188,2.913-2.618,6.785-1.124,10.108c1.494,3.322,4.677,5.569,8.309,5.865c0.081,0.006,0.269,0.019,0.559,0.034    c9.281,0.477,53.582,4.478,75.142,37.246c-8.758,4.687-16.843,10.536-24.112,17.496c-0.053,0.05-0.103,0.102-0.156,0.153    c-0.001,0.001-0.003,0.002-0.004,0.004c-0.001,0.001-0.002,0.002-0.002,0.003c-21.801,20.933-33.806,49.095-33.806,79.328v140    c0,30.235,12.007,58.398,33.805,79.327c0.001,0.001,0.002,0.002,0.003,0.003c0.002,0.002,0.004,0.003,0.005,0.005    c0.05,0.049,0.099,0.098,0.15,0.147c20.549,19.68,47.553,30.518,76.037,30.518h40c28.481,0,55.482-10.836,76.032-30.513    c0.053-0.05,0.103-0.102,0.156-0.153c0.001-0.001,0.003-0.002,0.004-0.004c0.001-0.001,0.002-0.002,0.002-0.003    c21.801-20.933,33.806-49.095,33.806-79.328v-140c0-30.309-12.063-58.538-33.96-79.479c-7.187-6.887-15.18-12.687-23.837-17.353    c17.459-25.747,50.143-34.674,75.723-37.519c3.582-0.398,6.672-2.693,8.089-6.006S412.953,114.512,410.767,111.647z     M198.717,180.082c2.41-0.108,4.567-1.036,6.26-2.568c9.904-3.647,20.319-5.511,31.02-5.511h12.717l-42.718,42.718l-24.399-24.398    C186.911,186.276,192.631,182.847,198.717,180.082z M241.855,385.142L205.997,421l-38.998-38.998l35.858-35.857L241.855,385.142z     M166.999,282.002l38.998-38.998l35.858,35.858l-38.998,38.998L166.999,282.002z M216.999,332.003l38.998-38.998l3.009,3.009    l35.989,35.989l-38.998,38.998L216.999,332.003z M309.137,346.145l35.858,35.858l-38.998,38.998l-35.858-35.859L309.137,346.145z     M273.148,281.871l-3.009-3.009l35.857-35.857l38.998,38.998l-35.857,35.857L273.148,281.871z M255.997,264.72l-35.858-35.858    l35.858-35.858l35.858,35.858L255.997,264.72z M145.997,262.002c0-21.506,7.429-41.73,21.093-57.904l24.764,24.764l-45.857,45.857    V262.002z M145.997,303.005l6.86-6.86l35.858,35.857l-42.718,42.717V303.005z M146.009,402.993l6.848-6.848l38.998,38.998    l-24.764,24.764C153.637,443.984,146.234,424.13,146.009,402.993z M235.018,491.979c-19.499-0.208-38.096-6.628-53.419-18.297    l24.398-24.398l35.858,35.858L235.018,491.979z M220.139,435.142l35.858-35.858l35.858,35.858L255.997,471L220.139,435.142z     M275.997,492.002H263.28v0l42.718-42.718l24.398,24.398C314.818,485.545,295.854,492.002,275.997,492.002z M344.904,459.907    l-24.764-24.764l38.998-38.998l6.848,6.848C365.76,424.13,358.357,443.984,344.904,459.907z M365.997,374.72l-42.717-42.717    l35.858-35.857l6.859,6.859V374.72z M365.997,262.003v12.717l-45.857-45.857l24.764-24.764    C358.568,220.271,365.997,240.495,365.997,262.003z M330.397,190.32l-24.4,24.4l-35.858-35.858l6.836-6.836    C296.505,172.233,315.027,178.613,330.397,190.32z M309.555,157.225c-17.394-5.578-29.804-5.224-43.558-5.224v-36    c0-5.523-4.477-10-10-10c-5.523,0-10,4.477-10,10v36c-11.974,0-25.153-0.627-43.273,5.134    c-18.38-30.743-51.253-42.375-73.06-46.758c9.731-8.235,20.539-12.771,31.883-13.28c18.081-0.814,37.392,8.621,52.965,25.883    c2.886,3.2,7.497,4.19,11.444,2.458c3.946-1.732,6.338-5.797,5.937-10.088c-4.34-46.396,15.301-83.802,24.113-93.653    c8.813,9.85,28.457,47.256,24.124,93.655c-0.4,4.283,1.991,8.334,5.926,10.07c3.934,1.736,8.547,0.755,11.442-2.428    c0.248-0.273,25.167-27.315,54.121-26.056c11.04,0.477,21.544,5.125,31.368,13.855    C349.305,118.042,323.852,134.106,309.555,157.225z" fill="#fe5f55"/>
	</g>
</g>
<g>
</g>
<g>
</g>
<g>
</g>
<g>
</g>
<g>
</g>
<g>
</g>
<g>
</g>
<g>
</g>
<g>
</g>
<g>
</g>
<g>
</g>
<g>
</g>
<g>
</g>
<g>
</g>
<g>
</g>
</svg>
