<?xml version="1.0" encoding="UTF-8"?>
<svg width="76px" height="76px" viewBox="0 0 76 76" version="1.1" xmlns="http://www.w3.org/2000/svg" xmlns:xlink="http://www.w3.org/1999/xlink">
    <!-- Generator: Sketch 49.3 (51167) - http://www.bohemiancoding.com/sketch -->
    <title>Logo png</title>
    <desc>Created with Sketch.</desc>
    <defs></defs>
    <g id="Maquette" stroke="none" stroke-width="1" fill="none" fill-rule="evenodd">
        <g id="Home-générale" transform="translate(-54.000000, -50.000000)">
            <g id="Menu" transform="translate(40.000000, 37.000000)">
                <g id="Logo-png">
                    <path d="M52.1204819,88.1084337 C31.5595196,88.1084337 14.8915663,71.4404804 14.8915663,50.8795181 C14.8915663,30.3185557 31.5595196,13.6506024 52.1204819,13.6506024 C72.6814443,13.6506024 89.3493976,30.3185557 89.3493976,50.8795181 C89.3493976,71.4404804 72.6814443,88.1084337 52.1204819,88.1084337 Z M52.1204819,84.3855422 C70.6253481,84.3855422 85.626506,69.3843842 85.626506,50.8795181 C85.626506,32.3746519 70.6253481,17.373494 52.1204819,17.373494 C33.6156158,17.373494 18.6144578,32.3746519 18.6144578,50.8795181 C18.6144578,69.3843842 33.6156158,84.3855422 52.1204819,84.3855422 Z" id="Oval-2" fill="#333745" fill-rule="nonzero"></path>
                    <path d="M52.1204819,83.1445783 C34.3009812,83.1445783 19.8554217,68.6990188 19.8554217,50.8795181 C19.8554217,33.0600173 34.3009812,18.6144578 52.1204819,18.6144578 C69.9399827,18.6144578 84.3855422,33.0600173 84.3855422,50.8795181 C84.3855422,68.6990188 69.9399827,83.1445783 52.1204819,83.1445783 Z M52.1204819,79.766038 C68.0740663,79.766038 81.0070018,66.8331025 81.0070018,50.8795181 C81.0070018,34.9259337 68.0740663,21.9929982 52.1204819,21.9929982 C36.1668975,21.9929982 23.233962,34.9259337 23.233962,50.8795181 C23.233962,66.8331025 36.1668975,79.766038 52.1204819,79.766038 Z" id="Oval-2" fill="#FE5F55" fill-rule="nonzero"></path>
                    <path d="M39.3513295,60.8979767 C38.9737814,60.8979767 38.6029807,60.8148274 38.2389165,60.6485265 C37.8748522,60.4822255 37.5579863,60.3001961 37.288309,60.1024328 C36.9107609,59.8147771 36.6860333,59.6709515 36.6141194,59.6709515 C36.4343346,59.6709515 36.3174762,59.8642172 36.2635407,60.2507546 L36.2096056,60.7901063 L35.8994783,60.7901063 L35.8050918,56.5292276 L36.1287028,56.5292276 C36.1826382,57.1944314 36.3691622,57.8304106 36.6882802,58.4371843 C37.0073983,59.0439581 37.4051662,59.5338644 37.881596,59.9069178 C38.3580257,60.2799713 38.847932,60.4664953 39.3513295,60.4664953 C40.0884472,60.4664953 40.6255463,60.2867132 40.9626428,59.9271435 C41.2997393,59.5675739 41.468285,59.1360968 41.468285,58.6326994 C41.468285,58.1922266 41.3401903,57.846146 41.0839969,57.5944472 C40.8278036,57.3427485 40.4525084,57.1180209 39.9581002,56.9202576 L37.9085636,56.0977462 C37.1984135,55.8100905 36.6747981,55.4392899 36.3377016,54.9853332 C36.0006051,54.5313765 35.8320593,53.9852884 35.8320593,53.3470523 C35.8320593,52.4840852 36.0837543,51.8458587 36.5871518,51.4323536 C37.0905493,51.0188485 37.7197867,50.8120991 38.4748829,50.8120991 C39.0681728,50.8120991 39.7243775,51.0817723 40.4435167,51.6211267 C40.5334091,51.6840514 40.6233002,51.7402333 40.7131926,51.7896741 C40.803085,51.839115 40.883987,51.863835 40.9559009,51.863835 C41.108718,51.863835 41.198609,51.7559657 41.2255768,51.540224 L41.2795119,51.0548074 L41.603123,51.0548074 L41.7379609,54.5605937 L41.4143499,54.5605937 C41.270522,53.9133684 41.0435471,53.3380656 40.7334183,52.8346681 C40.4232895,52.3312707 40.061478,51.9402446 39.6479729,51.6615781 C39.2344678,51.3829116 38.8074853,51.2435805 38.3670125,51.2435805 C37.8636151,51.2435805 37.4501162,51.4076317 37.1265035,51.735739 C36.8028909,52.0638462 36.641087,52.5200434 36.641087,53.104344 C36.641087,53.5088598 36.7444617,53.8234785 36.9512142,54.0482096 C37.1579667,54.2729406 37.4635963,54.4662063 37.8681122,54.6280127 L40.4704843,55.6662648 C41.0727634,55.9089743 41.524466,56.2550548 41.8256056,56.7045169 C42.1267451,57.1539789 42.2773127,57.625907 42.2773127,58.1203152 C42.2773127,58.5967449 42.1716907,59.0462002 41.9604435,59.4686945 C41.7491964,59.8911889 41.4255885,60.2350222 40.9896104,60.5002048 C40.5536322,60.7653874 40.007544,60.8979767 39.3513295,60.8979767 Z M46.4033535,60.8170739 C45.5673541,60.8170739 44.8954184,60.5339171 44.3875263,59.9675949 C43.8796342,59.4012727 43.625692,58.614726 43.625692,57.607931 C43.625692,57.0326196 43.7380558,56.4955206 43.9627868,55.9966177 C44.1875179,55.4977149 44.4998893,55.0976997 44.8999105,54.7965601 C45.2999317,54.4954205 45.7471397,54.344853 46.2415479,54.344853 C46.7898916,54.344853 47.2393469,54.4931733 47.5899273,54.7898182 C47.9405077,55.0864631 48.1944499,55.4617583 48.3517616,55.915715 C48.5090733,56.3696716 48.587728,56.8348578 48.587728,57.3112876 C48.587728,57.4101692 48.5562662,57.4753402 48.4933415,57.5068026 C48.4304168,57.5382649 48.3225475,57.5539959 48.1697304,57.5539959 L44.8122658,57.5539959 C44.8122658,58.4529199 44.9403606,59.1675538 45.196554,59.697919 C45.4527473,60.2282842 45.872988,60.4934629 46.4572886,60.4934629 C46.8707937,60.4934629 47.2595725,60.3361535 47.6236368,60.0215301 C47.987701,59.7069067 48.2191705,59.2170004 48.3180522,58.5517966 L48.6416632,58.5517966 C48.5877278,59.2080112 48.3607528,59.7496048 47.9607316,60.1765937 C47.5607104,60.6035826 47.0415896,60.8170739 46.4033535,60.8170739 Z M47.4281218,57.2303848 C47.4281218,56.5112456 47.3337362,55.9044809 47.1449621,55.4100727 C46.9561881,54.9156645 46.6460639,54.6684641 46.2145804,54.6684641 C45.7561291,54.6684641 45.4078012,54.9179117 45.1695864,55.4168146 C44.9313715,55.9157174 44.8122658,56.5202348 44.8122658,57.2303848 L47.4281218,57.2303848 Z M49.5585612,60.3316573 L50.2597184,60.3316573 C50.3675893,60.3316573 50.4439967,60.3091846 50.4889429,60.2642384 C50.5338891,60.2192922 50.5563619,60.1428848 50.5563619,60.0350139 L50.5563619,51.6750619 C50.5563619,51.567191 50.5338891,51.4907836 50.4889429,51.4458374 C50.4439967,51.4008912 50.3675893,51.3784184 50.2597184,51.3784184 L49.5585612,51.3784184 L49.5585612,51.0548074 L51.527195,51.0548074 L51.527195,60.0350139 C51.527195,60.1428848 51.5496678,60.2192922 51.594614,60.2642384 C51.6395602,60.3091846 51.7159676,60.3316573 51.8238385,60.3316573 L52.5249957,60.3316573 L52.5249957,60.6552684 L49.5585612,60.6552684 L49.5585612,60.3316573 Z M56.2465227,60.8170739 C55.4105234,60.8170739 54.7385877,60.5339171 54.2306956,59.9675949 C53.7228035,59.4012727 53.4688613,58.614726 53.4688613,57.607931 C53.4688613,57.0326196 53.5812251,56.4955206 53.8059561,55.9966177 C54.0306871,55.4977149 54.3430586,55.0976997 54.7430798,54.7965601 C55.143101,54.4954205 55.590309,54.344853 56.0847172,54.344853 C56.6330609,54.344853 57.0825162,54.4931733 57.4330966,54.7898182 C57.783677,55.0864631 58.0376192,55.4617583 58.1949309,55.915715 C58.3522426,56.3696716 58.4308973,56.8348578 58.4308973,57.3112876 C58.4308973,57.4101692 58.3994354,57.4753402 58.3365107,57.5068026 C58.2735861,57.5382649 58.1657168,57.5539959 58.0128997,57.5539959 L54.6554351,57.5539959 C54.6554351,58.4529199 54.7835299,59.1675538 55.0397232,59.697919 C55.2959166,60.2282842 55.7161573,60.4934629 56.3004579,60.4934629 C56.713963,60.4934629 57.1027418,60.3361535 57.4668061,60.0215301 C57.8308703,59.7069067 58.0623398,59.2170004 58.1612214,58.5517966 L58.4848325,58.5517966 C58.430897,59.2080112 58.2039221,59.7496048 57.8039009,60.1765937 C57.4038797,60.6035826 56.8847588,60.8170739 56.2465227,60.8170739 Z M57.2712911,57.2303848 C57.2712911,56.5112456 57.1769054,55.9044809 56.9881314,55.4100727 C56.7993573,54.9156645 56.4892332,54.6684641 56.0577496,54.6684641 C55.5992984,54.6684641 55.2509705,54.9179117 55.0127556,55.4168146 C54.7745408,55.9157174 54.6554351,56.5202348 54.6554351,57.2303848 L57.2712911,57.2303848 Z M62.3142298,60.8170739 C61.7928539,60.8170739 61.3321622,60.6732482 60.932141,60.3855925 C60.5321198,60.0979368 60.2219956,59.7069107 60.0017592,59.2125025 C59.7815228,58.7180942 59.6714063,58.1742533 59.6714063,57.5809635 C59.6714063,56.9876736 59.7837701,56.4438327 60.0085011,55.9494244 C60.2332322,55.4550162 60.5456036,55.0639901 60.9456248,54.7763344 C61.345646,54.4886787 61.8018431,54.344853 62.3142298,54.344853 C62.7277349,54.344853 63.0872991,54.4324968 63.3929333,54.607787 C63.6985675,54.7830772 63.9322842,55.0078048 64.0940906,55.2819767 C64.2558969,55.5561485 64.3367989,55.8325635 64.3367989,56.11123 C64.3367989,56.3898964 64.264886,56.6078822 64.1210582,56.7651939 C63.9772303,56.9225057 63.8019428,57.0011603 63.5951902,57.0011603 C63.4154054,57.0011603 63.2648379,56.9427311 63.1434831,56.825871 C63.0221284,56.7090109 62.9614519,56.5696797 62.9614519,56.4078734 C62.9614519,56.2460671 63.0063975,56.1112305 63.0962899,56.0033596 C63.1861823,55.8954887 63.2940515,55.8235759 63.4199009,55.7876189 C63.5637288,55.7426727 63.6356416,55.6617708 63.6356416,55.5449106 C63.6356416,55.4370397 63.5884488,55.3156868 63.4940618,55.1808482 C63.3996747,55.0460096 63.2536018,54.9269039 63.0558385,54.8235277 C62.8580752,54.7201514 62.6108748,54.6684641 62.3142298,54.6684641 C61.7479077,54.6684641 61.3636234,54.9111699 61.1613655,55.3965889 C60.9591076,55.8820079 60.8579801,56.6101255 60.8579801,57.5809635 C60.8579801,58.5518014 60.9568603,59.279919 61.1546236,59.765338 C61.3523869,60.250757 61.7389184,60.4934629 62.3142298,60.4934629 C62.8625735,60.4934629 63.2850615,60.3001971 63.5817064,59.9136597 C63.8783514,59.5271224 64.0581335,59.0731725 64.1210582,58.5517966 L64.4446692,58.5517966 C64.4177015,58.9203555 64.3233159,59.2776724 64.1615095,59.6237582 C63.9997032,59.9698439 63.7614919,60.255248 63.4468685,60.4799791 C63.1322451,60.7047101 62.7547026,60.8170739 62.3142298,60.8170739 Z M67.6807797,60.8170739 C67.2762638,60.8170739 66.9414196,60.6732482 66.676237,60.3855925 C66.4110544,60.0979368 66.2784651,59.7069107 66.2784651,59.2125025 L66.2784651,54.8842047 L65.2806644,54.8842047 L65.2806644,54.5066585 L65.5773079,54.5066585 C65.9818237,54.5066585 66.2986897,54.2886727 66.5279153,53.8526945 C66.7571409,53.4167164 66.871752,52.9335519 66.871752,52.4031867 L66.871752,51.9177702 L67.2492983,51.9177702 L67.2492983,54.5066585 L68.9212887,54.5066585 L68.9212887,54.8842047 L67.2492983,54.8842047 L67.2492983,59.2799214 C67.2492983,59.5495987 67.3032329,59.7743263 67.4111038,59.9541111 C67.5189747,60.1338959 67.7032513,60.223787 67.9639393,60.223787 C68.6021754,60.223787 68.9212887,59.6844406 68.9212887,58.6057318 L69.1639969,58.6057318 C69.1639969,59.2080109 69.0763532,59.7271317 68.901063,60.1631099 C68.7257728,60.5990881 68.3190157,60.8170739 67.6807797,60.8170739 Z" id="Select" fill="#333745" fill-rule="evenodd"></path>
                    <path d="M38.5635388,48.2286043 L39.2188512,48.2286043 C39.3826801,48.2286043 39.4645933,48.146691 39.4645933,47.9828621 L39.4645933,42.5765351 C39.4645933,42.4915868 39.4448735,42.4293934 39.4054332,42.3899531 C39.3659929,42.3505128 39.3037995,42.330793 39.2188512,42.330793 L38.5635388,42.330793 L38.5635388,42.039543 L43.6422097,42.039543 L43.6786159,44.3149332 L43.4510769,44.3149332 C43.4510769,44.1935784 43.4252894,43.9872785 43.3737136,43.6960271 C43.3221378,43.4047757 43.2205048,43.1438669 43.0688113,42.9132929 C42.8139664,42.5249577 42.4559752,42.330793 41.9948272,42.330793 L40.547679,42.330793 C40.4627307,42.330793 40.4005373,42.3505128 40.361097,42.3899531 C40.3216568,42.4293934 40.3019369,42.4915868 40.3019369,42.5765351 L40.3019369,45.0248549 L41.0027571,45.0248549 C41.3122117,45.0248549 41.5351977,44.8595116 41.6717218,44.5288199 C41.8082459,44.1981282 41.8765069,43.8507554 41.8765069,43.4866912 L42.1131475,43.4866912 L42.1131475,46.8542686 L41.8765069,46.8542686 C41.8765069,46.4902044 41.8082459,46.1428316 41.6717218,45.8121399 C41.5351977,45.4814482 41.3122117,45.3161049 41.0027571,45.3161049 L40.3019369,45.3161049 L40.3019369,47.9282528 C40.3019369,48.0192688 40.3216568,48.0920806 40.361097,48.1466902 C40.4005373,48.2012999 40.4627307,48.2286043 40.547679,48.2286043 L41.3486164,48.2286043 L41.3486164,48.5198542 L38.5635388,48.5198542 L38.5635388,48.2286043 Z M44.4977564,48.3014167 L44.8800219,48.3014167 C44.9528347,48.3014167 45.0044097,48.2862476 45.0347484,48.2559089 C45.0650871,48.2255703 45.0802562,48.1739953 45.0802562,48.1011824 L45.0802562,44.7882143 C45.0802562,44.7154015 45.0650871,44.6638265 45.0347484,44.6334878 C45.0044097,44.6031491 44.9528347,44.58798 44.8800219,44.58798 L44.4977564,44.58798 L44.4977564,44.3695426 L45.7355686,44.3695426 L45.7355686,45.2796986 L45.7719748,45.2888002 C45.8993973,44.9732778 46.0647407,44.7229874 46.2680099,44.5379214 C46.4712791,44.3528554 46.6881975,44.2603238 46.9187715,44.2603238 C47.1493455,44.2603238 47.3374425,44.3270679 47.4830682,44.4605582 C47.6286939,44.5940484 47.7015057,44.7760778 47.7015057,45.0066518 C47.7015057,45.140142 47.6544814,45.2705964 47.5604315,45.3980189 C47.4663816,45.5254414 47.3465456,45.5891517 47.2009199,45.5891517 C47.0856328,45.5891517 46.9885505,45.5588134 46.9096699,45.4981361 C46.8307893,45.4374587 46.7913496,45.3525117 46.7913496,45.2432924 C46.7913496,45.1158699 46.8520261,45.0066523 46.9733808,44.9156362 C47.0279905,44.8792298 47.0689471,44.8458577 47.0962519,44.815519 C47.1235567,44.7851803 47.1372089,44.7457406 47.1372089,44.6971987 C47.1372089,44.6425891 47.1114214,44.5985987 47.0598457,44.5652261 C47.0082699,44.5318536 46.9369751,44.5151675 46.845959,44.5151675 C46.6578591,44.5151675 46.4773467,44.6061822 46.3044161,44.7882143 C46.1314856,44.9702465 45.9934467,45.2068847 45.8902951,45.4981361 C45.7871436,45.7893875 45.7355686,46.0927698 45.7355686,46.4082921 L45.7355686,48.1011824 C45.7355686,48.1739953 45.7507377,48.2255703 45.7810764,48.2559089 C45.8114151,48.2862476 45.8629901,48.3014167 45.9358029,48.3014167 L46.3180685,48.3014167 L46.3180685,48.5198542 L44.4977564,48.5198542 L44.4977564,48.3014167 Z M50.1953333,48.6290729 C49.6310337,48.6290729 49.1774772,48.4379421 48.83465,48.0556746 C48.4918228,47.6734072 48.3204118,47.1424881 48.3204118,46.4629015 C48.3204118,46.0745663 48.3962574,45.7120244 48.5479508,45.375265 C48.6996443,45.0385056 48.910495,44.7684953 49.1805093,44.5652261 C49.4505236,44.3619569 49.752389,44.2603238 50.0861146,44.2603238 C50.4562466,44.2603238 50.7596289,44.36044 50.9962706,44.5606753 C51.2329124,44.7609107 51.4043234,45.0142349 51.5105088,45.3206556 C51.6166942,45.6270764 51.6697861,45.9410771 51.6697861,46.2626672 C51.6697861,46.3294123 51.6485494,46.3734027 51.6060752,46.3946398 C51.563601,46.4158769 51.4907893,46.4264953 51.3876377,46.4264953 L49.1213492,46.4264953 C49.1213492,47.033269 49.2078131,47.5156469 49.3807436,47.8736434 C49.5536741,48.2316399 49.8373366,48.4106355 50.2317395,48.4106355 C50.5108555,48.4106355 50.7732812,48.3044517 51.0190245,48.0920809 C51.2647679,47.87971 51.4210098,47.5490233 51.4877549,47.1000107 L51.7061924,47.1000107 C51.6697859,47.5429556 51.5165779,47.9085313 51.2465636,48.1967488 C50.9765492,48.4849663 50.6261427,48.6290729 50.1953333,48.6290729 Z M50.8870519,46.2080578 C50.8870519,45.7226388 50.8233416,45.3130727 50.6959191,44.9793471 C50.5684967,44.6456216 50.3591629,44.4787613 50.0679115,44.4787613 C49.7584568,44.4787613 49.5233356,44.6471385 49.3625405,44.9838979 C49.2017455,45.3206573 49.1213492,45.7287065 49.1213492,46.2080578 L50.8870519,46.2080578 Z M52.4161141,48.3014167 L52.7983796,48.3014167 C52.8711925,48.3014167 52.9227675,48.2862476 52.9531062,48.2559089 C52.9834449,48.2255703 52.998614,48.1739953 52.998614,48.1011824 L52.998614,44.7882143 C52.998614,44.7154015 52.9834449,44.6638265 52.9531062,44.6334878 C52.9227675,44.6031491 52.8711925,44.58798 52.7983796,44.58798 L52.4161141,44.58798 L52.4161141,44.3695426 L53.6539263,44.3695426 L53.6539263,45.1158705 L53.6903326,45.1249721 C53.8298905,44.8337207 54.0028185,44.6168023 54.2091215,44.4742105 C54.4154246,44.3316187 54.6429614,44.2603238 54.8917386,44.2603238 C55.3346834,44.2603238 55.6486841,44.3968459 55.8337501,44.6698941 C56.0188161,44.9429422 56.1113477,45.2705951 56.1113477,45.6528626 L56.1113477,48.1011824 C56.1113477,48.1739953 56.1265168,48.2255703 56.1568555,48.2559089 C56.1871942,48.2862476 56.2387692,48.3014167 56.3115821,48.3014167 L56.6938476,48.3014167 L56.6938476,48.5198542 L54.8735355,48.5198542 L54.8735355,48.3014167 L55.255801,48.3014167 C55.3286139,48.3014167 55.3801889,48.2862476 55.4105275,48.2559089 C55.4408662,48.2255703 55.4560354,48.1739953 55.4560354,48.1011824 L55.4560354,45.479933 C55.4560354,45.2129525 55.4029434,44.9854158 55.296758,44.7973159 C55.1905726,44.609216 55.0100602,44.5151675 54.7552152,44.5151675 C54.5428444,44.5151675 54.3532304,44.5894962 54.1863676,44.7381558 C54.0195049,44.8868153 53.8890505,45.0900815 53.7950005,45.3479603 C53.7009506,45.6058392 53.6539263,45.8925355 53.6539263,46.2080578 L53.6539263,48.1011824 C53.6539263,48.1739953 53.6690955,48.2255703 53.6994341,48.2559089 C53.7297728,48.2862476 53.7813478,48.3014167 53.8541607,48.3014167 L54.2364262,48.3014167 L54.2364262,48.5198542 L52.4161141,48.5198542 L52.4161141,48.3014167 Z M59.2058783,48.6290729 C58.8539496,48.6290729 58.5429827,48.5319906 58.2729684,48.337823 C58.0029541,48.1436554 57.7936203,47.8797128 57.6449607,47.5459872 C57.4963011,47.2122617 57.4219724,46.8451691 57.4219724,46.4446984 C57.4219724,46.0442277 57.497818,45.6771351 57.6495115,45.3434095 C57.8012049,45.009684 58.0120556,44.7457414 58.2820699,44.5515738 C58.5520842,44.3574062 58.8600173,44.2603238 59.2058783,44.2603238 C59.4849943,44.2603238 59.7277001,44.3194834 59.9340032,44.4378043 C60.1403063,44.5561251 60.2980651,44.7078163 60.4072843,44.8928823 C60.5165036,45.0779483 60.5711124,45.2645284 60.5711124,45.4526283 C60.5711124,45.6407281 60.5225713,45.7878686 60.4254875,45.894054 C60.3284037,46.0002394 60.2100846,46.0533313 60.0705266,46.0533313 C59.9491718,46.0533313 59.8475388,46.0138916 59.7656243,45.935011 C59.6837099,45.8561304 59.6427532,45.7620819 59.6427532,45.6528626 C59.6427532,45.5436433 59.6730915,45.4526286 59.7337688,45.3798158 C59.7944462,45.3070029 59.867258,45.2584618 59.9522063,45.2341908 C60.0492901,45.2038521 60.0978313,45.1492433 60.0978313,45.0703627 C60.0978313,44.9975499 60.0659761,44.9156367 60.0022649,44.8246206 C59.9385536,44.7336045 59.8399544,44.6532082 59.7064642,44.5834292 C59.5729739,44.5136503 59.4061137,44.4787613 59.2058783,44.4787613 C58.8236109,44.4787613 58.564219,44.6425877 58.4276949,44.9702456 C58.2911708,45.2979034 58.2229098,45.7893827 58.2229098,46.4446984 C58.2229098,47.100014 58.2896539,47.5914934 58.4231441,47.9191512 C58.5566343,48.246809 58.8175431,48.4106355 59.2058783,48.4106355 C59.5760103,48.4106355 59.8611897,48.2801811 60.061425,48.0192684 C60.2616604,47.7583557 60.3830133,47.4519395 60.4254875,47.1000107 L60.6439249,47.1000107 C60.6257217,47.348788 60.5620114,47.5899769 60.4527921,47.8235848 C60.3435729,48.0571927 60.1827802,48.2498405 59.9704094,48.4015339 C59.7580386,48.5532274 59.5031975,48.6290729 59.2058783,48.6290729 Z M61.2082217,48.3014167 L61.7179091,48.3014167 C61.7907219,48.3014167 61.8422969,48.2862476 61.8726356,48.2559089 C61.9029743,48.2255703 61.9181434,48.1739953 61.9181434,48.1011824 L61.9181434,42.4582148 C61.9181434,42.385402 61.9029743,42.333827 61.8726356,42.3034883 C61.8422969,42.2731496 61.7907219,42.2579805 61.7179091,42.2579805 L61.2082217,42.2579805 L61.2082217,42.039543 L62.5734558,42.039543 L62.5734558,45.1158705 L62.609862,45.1249721 C62.74942,44.8337207 62.9223479,44.6168023 63.128651,44.4742105 C63.334954,44.3316187 63.5624908,44.2603238 63.811268,44.2603238 C64.2542128,44.2603238 64.5682135,44.3968459 64.7532795,44.6698941 C64.9383455,44.9429422 65.0308771,45.2705951 65.0308771,45.6528626 L65.0308771,48.1011824 C65.0308771,48.1739953 65.0460463,48.2255703 65.0763849,48.2559089 C65.1067236,48.2862476 65.1582986,48.3014167 65.2311115,48.3014167 L65.613377,48.3014167 L65.613377,48.5198542 L63.7930649,48.5198542 L63.7930649,48.3014167 L64.1753304,48.3014167 C64.2481433,48.3014167 64.2997183,48.2862476 64.330057,48.2559089 C64.3603957,48.2255703 64.3755648,48.1739953 64.3755648,48.1011824 L64.3755648,45.479933 C64.3755648,45.2129525 64.3224729,44.9854158 64.2162875,44.7973159 C64.1101021,44.609216 63.9295896,44.5151675 63.6747446,44.5151675 C63.4623738,44.5151675 63.2727598,44.5894962 63.1058971,44.7381558 C62.9390343,44.8868153 62.8085799,45.0900815 62.71453,45.3479603 C62.62048,45.6058392 62.5734558,45.8925355 62.5734558,46.2080578 L62.5734558,48.1011824 C62.5734558,48.1739953 62.5886249,48.2255703 62.6189636,48.2559089 C62.6493023,48.2862476 62.7008772,48.3014167 62.7736901,48.3014167 L63.1559556,48.3014167 L63.1559556,48.5198542 L61.2082217,48.5198542 L61.2082217,48.3014167 Z" id="French" fill="#333745" fill-rule="evenodd"></path>
                </g>
            </g>
        </g>
    </g>
</svg>