<?xml version="1.0" encoding="iso-8859-1"?>
<!-- Generator: Adobe Illustrator 19.0.0, SVG Export Plug-In . SVG Version: 6.00 Build 0)  -->
<svg xmlns="http://www.w3.org/2000/svg" xmlns:xlink="http://www.w3.org/1999/xlink" version="1.1" id="Layer_1" x="0px" y="0px" viewBox="0 0 512 512" style="enable-background:new 0 0 512 512;" xml:space="preserve" width="512px" height="512px">
<g>
	<g>
		<path d="M480.001,212.693c0-13.867-13.333-28.267-27.2-30.827L284.908,19.733C272.641,7.04,265.814,0,256.001,0    s-16.64,6.933-28.907,19.627L59.734,181.333h-0.747c-15.893,0-26.987,16.533-26.987,31.36V288c0,23.147,3.947,43.947,11.093,62.08    c-0.213,0.64-0.32,1.28-0.427,1.92v74.027c-1.492,24.213,5.335,45.013,19.522,60.053c16,16.96,40,25.92,69.653,25.92h243.84    c30.827,0,57.067-9.813,73.92-27.733c14.293-15.04,21.013-35.2,19.733-57.6V352c-0.107-0.64-0.213-1.28-0.427-1.92    c7.147-18.133,11.094-38.933,11.094-62.08V212.693z M242.027,34.88l0.213-0.213c5.44-5.653,11.093-11.413,13.653-13.013    c2.667,1.6,8.213,7.36,13.973,13.227l151.787,146.453h-331.2L242.027,34.88z M434.028,469.653    c-12.693,13.547-33.387,21.013-58.24,21.013H131.841c-23.573,0-42.347-6.613-54.08-19.2c-10.24-10.88-14.827-25.707-13.76-44.8    v-41.173c22.4,26.24,55.36,41.173,96,41.173h53.333v10.667c0,5.867,4.8,10.667,10.667,10.667h53.333    c5.867,0,10.667-4.8,10.667-10.667v-10.667h64c40.64,0,73.6-14.933,96-41.173v41.813    C449.068,444.48,444.374,458.773,434.028,469.653z M234.668,426.667v-32h32v32H234.668z M458.774,288    c0,72.427-40.853,117.333-106.667,117.333h-64V384c0-5.867-4.8-10.667-10.667-10.667h-53.333c-5.867,0-10.667,4.8-10.667,10.667    v21.333h-53.333c-65.813,0-106.666-44.906-106.666-117.333v-75.307h-0.107c0-5.013,3.84-10.027,5.653-10.027h389.76    c5.547,0,10.027,4.48,10.027,10.027V288z" fill="#fe5f55"/>
	</g>
</g>
<g>
</g>
<g>
</g>
<g>
</g>
<g>
</g>
<g>
</g>
<g>
</g>
<g>
</g>
<g>
</g>
<g>
</g>
<g>
</g>
<g>
</g>
<g>
</g>
<g>
</g>
<g>
</g>
<g>
</g>
</svg>
