<?xml version="1.0" encoding="UTF-8"?>
<svg width="59px" height="81px" viewBox="0 0 59 81" version="1.1" xmlns="http://www.w3.org/2000/svg" xmlns:xlink="http://www.w3.org/1999/xlink">
    <!-- Generator: Sketch 49.3 (51167) - http://www.bohemiancoding.com/sketch -->
    <title>noun_324466_cc</title>
    <desc>Created with Sketch.</desc>
    <defs></defs>
    <g id="Maquette" stroke="none" stroke-width="1" fill="none" fill-rule="evenodd">
        <g id="Home-générale" transform="translate(-124.000000, -3988.000000)" fill="#FE5F55" fill-rule="nonzero">
            <g id="Home-/-partie-3" transform="translate(117.000000, 3797.000000)">
                <g id="Faire-gagner-du-temps" transform="translate(7.000000, 191.000000)">
                    <g id="noun_324466_cc">
                        <path d="M53.395,33.9255 L54.9906818,32.319 C56.8143182,30.4695 56.8143182,27.486 54.9906818,25.6365 C53.2206818,23.8545 50.1231818,23.8545 48.3531818,25.6365 L46.7575,27.243 C43.2845455,24.705 39.235,22.923 34.8636364,22.0995 L34.8636364,20.871 C40.5222727,19.278 44.25,15.3225 44.25,10.8 C44.25,4.8465 37.6393182,0 29.5,0 C21.3606818,0 14.75,4.8465 14.75,10.8 C14.75,15.3225 18.4777273,19.2645 24.1363636,20.871 L24.1363636,22.0995 C19.4431818,22.977 15.1388636,24.9615 11.4915909,27.7965 L9.34613636,25.6365 C7.57613636,23.8545 4.47863636,23.8545 2.70863636,25.6365 C0.871590909,27.4725 0.871590909,30.483 2.70863636,32.319 L5.05522727,34.6815 C1.86386364,39.4335 0,45.144 0,51.3 C0,67.6755 13.2347727,81 29.5,81 C45.7652273,81 59,67.6755 59,51.3 C59,44.82 56.9215909,38.8125 53.395,33.9255 Z M50.2438636,27.54 C51.0081818,26.7705 52.3222727,26.7705 53.0865909,27.54 C53.8643182,28.323 53.8643182,29.619 53.0865909,30.402 L51.7054545,31.7925 C50.8204545,30.78 49.8684091,29.8215 48.8627273,28.9305 L50.2438636,27.54 Z M17.4318182,10.8 C17.4318182,6.3315 22.8490909,2.7 29.5,2.7 C36.1509091,2.7 41.5681818,6.3315 41.5681818,10.8 C41.5681818,13.851 38.8863636,16.686 34.8636364,18.0495 L34.8636364,16.2 C37.0761364,16.2 38.8863636,14.3775 38.8863636,12.15 C38.8863636,9.9225 37.0761364,8.1 34.8636364,8.1 L24.1363636,8.1 C21.9238636,8.1 20.1136364,9.9225 20.1136364,12.15 C20.1136364,14.3775 21.9238636,16.2 24.1363636,16.2 L24.1363636,18.0495 C20.1136364,16.686 17.4318182,13.851 17.4318182,10.8 Z M24.1363636,13.5 C23.3988636,13.5 22.7954545,12.8925 22.7954545,12.15 C22.7954545,11.4075 23.3988636,10.8 24.1363636,10.8 L34.8636364,10.8 C35.6011364,10.8 36.2045455,11.4075 36.2045455,12.15 C36.2045455,12.8925 35.6011364,13.5 34.8636364,13.5 L24.1363636,13.5 Z M26.8181818,21.6 L26.8181818,21.492 L26.8181818,16.2 L32.1818182,16.2 L32.1818182,21.492 L32.1818182,21.6 L26.8181818,21.6 Z M4.61272727,27.54 C4.98818182,27.162 5.49772727,26.946 6.03409091,26.946 C6.57045455,26.946 7.08,27.162 7.45545455,27.54 L8.87681818,28.971 L6.03409091,31.8465 L4.61272727,30.4155 C3.82159091,29.619 3.82159091,28.3365 4.61272727,27.54 Z M29.5,78.3 C14.7097727,78.3 2.68181818,66.1905 2.68181818,51.3 C2.68181818,36.4095 14.7097727,24.3 29.5,24.3 C35.9229545,24.3 41.8095455,26.5815 46.4356818,30.3885 L50.2706818,34.2495 C54.0520455,38.907 56.3181818,44.8335 56.3181818,51.3 C56.3181818,66.1905 44.2902273,78.3 29.5,78.3 Z" id="Shape"></path>
                        <path d="M30,28 C23.6817647,28 17.9588235,30.5570588 13.7917647,34.6970588 C13.7782353,34.7105882 13.7511765,34.7241176 13.7376471,34.7376471 C13.7241176,34.7511765 13.7105882,34.7782353 13.6970588,34.7917647 C9.55705882,38.9588235 7,44.6817647 7,51 C7,57.3182353 9.55705882,63.0411765 13.6970588,67.2082353 C13.7105882,67.2217647 13.7241176,67.2488235 13.7376471,67.2623529 C13.7511765,67.2758824 13.7782353,67.2894118 13.7917647,67.3029412 C17.9588235,71.4429412 23.6817647,74 30,74 C36.3182353,74 42.0411765,71.4429412 46.2082353,67.3029412 C46.2217647,67.2894118 46.2488235,67.2758824 46.2623529,67.2623529 C46.2758824,67.2488235 46.2894118,67.2217647 46.3029412,67.2082353 C50.4429412,63.0411765 53,57.3182353 53,51 C53,38.3229412 42.6770588,28 30,28 Z M50.2264706,49.6470588 L46.2352941,49.6470588 C45.4911765,49.6470588 44.8823529,50.2558824 44.8823529,51 C44.8823529,51.7441176 45.4911765,52.3529412 46.2352941,52.3529412 L50.2264706,52.3529412 C49.9288235,56.9258824 48.1023529,61.0929412 45.2611765,64.34 L42.4470588,61.5258824 C41.9194118,60.9982353 41.0670588,60.9982353 40.5394118,61.5258824 C40.0117647,62.0535294 40.0117647,62.9058824 40.5394118,63.4335294 L43.3535294,66.2476471 C40.1064706,69.0888235 35.9394118,70.9152941 31.3664706,71.2129412 L31.3664706,67.2352941 C31.3664706,66.4911765 30.7576471,65.8823529 30.0135294,65.8823529 C29.2694118,65.8823529 28.6605882,66.4911765 28.6605882,67.2352941 L28.6605882,71.2264706 C24.0876471,70.9288235 19.9205882,69.1023529 16.6735294,66.2611765 L19.4876471,63.4470588 C20.0152941,62.9194118 20.0152941,62.0670588 19.4876471,61.5394118 C18.96,61.0117647 18.1076471,61.0117647 17.58,61.5394118 L14.7658824,64.3535294 C11.9247059,61.1064706 10.0982353,56.9394118 9.80058824,52.3664706 L13.7647059,52.3664706 C14.5088235,52.3664706 15.1176471,51.7576471 15.1176471,51.0135294 C15.1176471,50.2694118 14.5088235,49.6605882 13.7647059,49.6605882 L9.77352941,49.6605882 C10.0711765,45.0876471 11.8976471,40.9205882 14.7388235,37.6735294 L17.5529412,40.4876471 C17.8235294,40.7582353 18.1617647,40.88 18.5135294,40.88 C18.8652941,40.88 19.2035294,40.7447059 19.4741176,40.4876471 C20.0017647,39.96 20.0017647,39.1076471 19.4741176,38.58 L16.66,35.7658824 C19.9070588,32.9247059 24.0741176,31.0982353 28.6470588,30.8005882 L28.6470588,34.7647059 C28.6470588,35.5088235 29.2558824,36.1176471 30,36.1176471 C30.7441176,36.1176471 31.3529412,35.5088235 31.3529412,34.7647059 L31.3529412,30.7735294 C41.4594118,31.45 49.55,39.5405882 50.2264706,49.6470588 Z" id="Shape"></path>
                        <path d="M31.9187188,47.2682837 C31.2388447,46.8950194 30.4789854,46.6683947 29.6658026,46.6683947 C27.0929458,46.6683947 25,48.7613405 25,51.3341974 C25,53.9070542 27.0929458,56 29.6658026,56 C32.2386595,56 34.3316053,53.9070542 34.3316053,51.3341974 C34.3316053,50.5210146 34.1049806,49.7611553 33.7317163,49.0812812 C33.7983707,49.0279578 33.8783559,49.0012961 33.9450102,48.9346417 L42.6100722,40.2695797 C43.1299759,39.749676 43.1299759,38.9098315 42.6100722,38.3899278 C42.0901685,37.8700241 41.250324,37.8700241 40.7304203,38.3899278 L32.0653583,47.0549898 C31.9987039,47.1216441 31.9587113,47.2016293 31.9187188,47.2682837 Z M29.6658026,53.3338271 C28.5593409,53.3338271 27.6661729,52.4406591 27.6661729,51.3341974 C27.6661729,50.2277356 28.5593409,49.3345677 29.6658026,49.3345677 C30.7722644,49.3345677 31.6654323,50.2277356 31.6654323,51.3341974 C31.6654323,52.4406591 30.7722644,53.3338271 29.6658026,53.3338271 Z" id="Shape"></path>
                    </g>
                </g>
            </g>
        </g>
    </g>
</svg>